<svg width="173" height="124" viewBox="0 0 173 124" fill="none" xmlns="http://www.w3.org/2000/svg">
<path d="M149.031 0.0945055C137.19 1.22693 122.618 5.97312 106.148 14.0833C90.1271 21.9769 75.7718 31.436 62.1659 43.06C59.5014 45.3249 56.97 47.623 56.9534 47.7562C56.9367 47.8228 57.7361 47.2899 58.7353 46.5738C64.3309 42.5104 72.208 37.5644 79.6687 33.4011C99.9027 22.1435 123.384 13.9834 139.621 12.5678C142.469 12.318 147.265 12.4846 149.447 12.9009C154.676 13.9001 157.957 16.1316 159.755 19.9119C160.605 21.7105 160.904 23.2259 160.904 25.9071C160.904 31.2861 158.889 37.5644 154.943 44.4922C153.444 47.1068 150.046 52.0861 147.881 54.8339C146.782 56.2328 145.916 57.3818 145.966 57.3818C146.116 57.3818 149.83 54.5674 151.529 53.1519C163.369 43.3098 171.363 30.6866 172.845 19.4789C173.145 17.2307 172.995 13.3672 172.529 11.5853C170.897 5.39025 166.034 1.56 158.273 0.344305C156.258 0.0278923 151.195 -0.105334 149.031 0.0945055Z" fill="currentColor"/>
<path d="M19.8787 7.60748C13.7169 7.94054 8.12138 9.92228 4.70741 12.9698C0.0943905 17.1165 -1.15462 22.9785 1.07695 29.9728C2.80891 35.3519 7.47189 42.5128 13.5837 49.1408C23.8423 60.2652 40.1627 73.2381 58.0985 84.5623C84.2112 101.032 111.973 113.522 131.457 117.569C137.086 118.735 141.05 119.185 145.862 119.201C149.909 119.201 152.324 118.951 155.305 118.169C159.069 117.186 161.533 115.871 163.765 113.606C166.23 111.124 167.295 108.643 167.462 104.996C167.862 96.4861 161.483 85.3284 149.193 73.0383C141 64.8282 132.323 58.017 120.483 50.4897C118.95 49.5072 117.668 48.7244 117.635 48.7578C117.618 48.7911 118.95 49.9235 120.599 51.3057C125.529 55.4024 128.076 57.7172 132.306 61.9472C141.249 70.89 146.512 78.2174 149.26 85.5782C150.475 88.8089 150.875 92.5726 150.292 95.0706C148.827 101.299 141.932 103.814 130.791 102.165C113.288 99.6002 85.277 86.7939 59.5973 69.6243C43.6599 58.9829 30.97 48.0417 23.9255 38.899C19.6456 33.3368 17.2808 28.0244 17.2974 23.9277C17.3141 21.463 18.33 18.8984 19.9787 17.2497C22.6099 14.6352 26.5401 13.3196 32.2856 13.1364C42.0612 12.82 53.2024 15.6344 67.5577 22.0126C68.7068 22.5288 67.9907 22.0459 65.8091 20.8635C49.0057 11.7208 32.3689 6.92469 19.8787 7.60748Z" fill="currentColor"/>
<path d="M22.6298 73.4065C10.6559 83.6483 2.66224 94.856 0.697127 104.182C0.297443 106.097 0.297443 109.644 0.713781 111.259C1.23004 113.308 2.4624 115.623 3.82798 117.071C5.3268 118.687 6.62577 119.619 8.82403 120.652C17.667 124.865 31.8392 124.049 49.0422 118.37C56.0034 116.056 61.7322 113.674 68.6767 110.177C74.6719 107.163 79.718 104.282 76.8702 105.497C75.6545 106.03 66.6783 108.928 63.2143 109.927C57.0192 111.726 49.7084 113.374 44.4459 114.174C35.8027 115.506 26.8431 115.523 21.3808 114.24C14.8859 112.708 10.989 109.561 9.60675 104.765C9.30698 103.682 9.24037 103.033 9.24037 101.267C9.24037 98.7695 9.54013 97.0376 10.3895 94.4896C12.5544 87.9282 16.8843 81.1337 24.8447 71.7579C25.1111 71.4581 25.2943 71.2083 25.261 71.2083C25.2277 71.2083 24.0453 72.2075 22.6298 73.4065Z" fill="currentColor"/>
</svg>
